<svg xmlns="http://www.w3.org/2000/svg" width="253.37" height="35" viewBox="0 0 253.37 35"><rect class="svg__rect" x="0" y="0" width="94.37" height="35" fill="#31C4F3"/><rect class="svg__rect" x="92.37" y="0" width="161" height="35" fill="#389AD5"/><path class="svg__text" d="M16.67 22L14.22 22L14.22 13.47L16.74 13.47Q17.87 13.47 18.74 13.97Q19.62 14.48 20.10 15.40Q20.58 16.33 20.58 17.52L20.58 17.52L20.58 17.95Q20.58 19.16 20.10 20.08Q19.61 21.00 18.72 21.50Q17.83 22 16.67 22L16.67 22ZM15.70 14.66L15.70 20.82L16.67 20.82Q17.83 20.82 18.46 20.09Q19.08 19.36 19.09 17.99L19.09 17.99L19.09 17.52Q19.09 16.13 18.49 15.40Q17.89 14.66 16.74 14.66L16.74 14.66L15.70 14.66ZM26.61 22L25.13 22L25.13 13.47L26.61 13.47L26.61 22ZM30.99 19.42L30.99 19.42L32.47 19.42Q32.47 20.15 32.95 20.55Q33.43 20.95 34.33 20.95L34.33 20.95Q35.10 20.95 35.49 20.63Q35.88 20.32 35.88 19.80L35.88 19.80Q35.88 19.24 35.48 18.94Q35.09 18.63 34.06 18.32Q33.03 18.01 32.42 17.63L32.42 17.63Q31.25 16.90 31.25 15.72L31.25 15.72Q31.25 14.69 32.09 14.02Q32.93 13.35 34.27 13.35L34.27 13.35Q35.16 13.35 35.86 13.68Q36.56 14.01 36.96 14.61Q37.36 15.22 37.36 15.96L37.36 15.96L35.88 15.96Q35.88 15.29 35.46 14.91Q35.04 14.54 34.26 14.54L34.26 14.54Q33.54 14.54 33.13 14.85Q32.73 15.16 32.73 15.71L32.73 15.71Q32.73 16.18 33.17 16.50Q33.60 16.81 34.60 17.10Q35.59 17.40 36.20 17.78Q36.80 18.16 37.08 18.65Q37.36 19.13 37.36 19.79L37.36 19.79Q37.36 20.86 36.54 21.49Q35.73 22.12 34.33 22.12L34.33 22.12Q33.40 22.12 32.62 21.77Q31.85 21.43 31.42 20.83Q30.99 20.22 30.99 19.42ZM41.38 18.19L41.38 18.19L41.38 17.39Q41.38 16.19 41.81 15.27Q42.24 14.35 43.04 13.85Q43.84 13.35 44.89 13.35L44.89 13.35Q46.30 13.35 47.16 14.12Q48.02 14.89 48.16 16.29L48.16 16.29L46.68 16.29Q46.58 15.37 46.15 14.96Q45.72 14.55 44.89 14.55L44.89 14.55Q43.92 14.55 43.40 15.26Q42.88 15.96 42.87 17.33L42.87 17.33L42.87 18.09Q42.87 19.47 43.36 20.20Q43.86 20.92 44.81 20.92L44.81 20.92Q45.69 20.92 46.13 20.53Q46.57 20.14 46.68 19.22L46.68 19.22L48.16 19.22Q48.03 20.59 47.15 21.35Q46.27 22.12 44.81 22.12L44.81 22.12Q43.80 22.12 43.02 21.63Q42.24 21.15 41.82 20.26Q41.40 19.37 41.38 18.19ZM52.20 18.00L52.20 18.00L52.20 17.52Q52.20 16.28 52.65 15.32Q53.09 14.37 53.89 13.86Q54.70 13.35 55.74 13.35Q56.79 13.35 57.59 13.85Q58.40 14.35 58.84 15.29Q59.28 16.23 59.28 17.48L59.28 17.48L59.28 17.96Q59.28 19.21 58.85 20.16Q58.41 21.10 57.61 21.61Q56.80 22.12 55.75 22.12L55.75 22.12Q54.72 22.12 53.91 21.61Q53.09 21.10 52.65 20.17Q52.21 19.23 52.20 18.00ZM53.69 17.46L53.69 17.96Q53.69 19.36 54.23 20.13Q54.78 20.90 55.75 20.90L55.75 20.90Q56.74 20.90 57.27 20.15Q57.80 19.40 57.80 17.96L57.80 17.96L57.80 17.51Q57.80 16.09 57.26 15.34Q56.73 14.58 55.74 14.58L55.74 14.58Q54.78 14.58 54.24 15.33Q53.70 16.09 53.69 17.46L53.69 17.46ZM65.23 22L63.75 22L63.75 13.47L66.75 13.47Q68.22 13.47 69.03 14.13Q69.83 14.79 69.83 16.05L69.83 16.05Q69.83 16.90 69.42 17.48Q69.00 18.06 68.26 18.37L68.26 18.37L70.18 21.92L70.18 22L68.59 22L66.88 18.71L65.23 18.71L65.23 22ZM65.23 14.66L65.23 17.52L66.75 17.52Q67.50 17.52 67.92 17.15Q68.35 16.77 68.35 16.11L68.35 16.11Q68.35 15.43 67.96 15.05Q67.57 14.68 66.79 14.66L66.79 14.66L65.23 14.66ZM76.68 22L74.22 22L74.22 13.47L76.74 13.47Q77.87 13.47 78.75 13.97Q79.63 14.48 80.11 15.40Q80.59 16.33 80.59 17.52L80.59 17.52L80.59 17.95Q80.59 19.16 80.10 20.08Q79.62 21.00 78.73 21.50Q77.83 22 76.68 22L76.68 22ZM75.71 14.66L75.71 20.82L76.67 20.82Q77.84 20.82 78.46 20.09Q79.09 19.36 79.10 17.99L79.10 17.99L79.10 17.52Q79.10 16.13 78.49 15.40Q77.89 14.66 76.74 14.66L76.74 14.66L75.71 14.66Z" fill="#FFFFFF"/><path class="svg__text" d="M112.94 22L106.56 22L106.56 13.60L108.94 13.60L108.94 20.11L112.94 20.11L112.94 22ZM116.93 17.80L116.93 17.80Q116.93 16.55 117.54 15.55Q118.14 14.56 119.21 14.00Q120.27 13.43 121.60 13.43L121.60 13.43Q122.93 13.43 123.99 14.00Q125.06 14.56 125.66 15.55Q126.27 16.55 126.27 17.80L126.27 17.80Q126.27 19.05 125.66 20.04Q125.06 21.04 124.00 21.60Q122.93 22.17 121.60 22.17L121.60 22.17Q120.27 22.17 119.21 21.60Q118.14 21.04 117.54 20.04Q116.93 19.05 116.93 17.80ZM119.33 17.80L119.33 17.80Q119.33 18.51 119.63 19.05Q119.93 19.60 120.45 19.90Q120.97 20.20 121.60 20.20L121.60 20.20Q122.24 20.20 122.75 19.90Q123.27 19.60 123.57 19.05Q123.87 18.51 123.87 17.80L123.87 17.80Q123.87 17.09 123.57 16.54Q123.27 16 122.75 15.70Q122.24 15.40 121.60 15.40L121.60 15.40Q120.96 15.40 120.45 15.70Q119.93 16 119.63 16.54Q119.33 17.09 119.33 17.80ZM133.38 22L131.00 22L131.00 13.60L134.84 13.60Q135.98 13.60 136.82 13.98Q137.66 14.35 138.12 15.06Q138.57 15.76 138.57 16.71L138.57 16.71Q138.57 17.62 138.15 18.30Q137.72 18.98 136.93 19.36L136.93 19.36L138.74 22L136.19 22L134.67 19.77L133.38 19.77L133.38 22ZM133.38 15.47L133.38 17.93L134.69 17.93Q135.43 17.93 135.80 17.61Q136.17 17.29 136.17 16.71L136.17 16.71Q136.17 16.12 135.80 15.79Q135.43 15.47 134.69 15.47L134.69 15.47L133.38 15.47ZM144.78 22L142.35 22L146.06 13.60L148.41 13.60L152.12 22L149.65 22L148.99 20.37L145.44 20.37L144.78 22ZM147.22 15.93L146.13 18.61L148.29 18.61L147.22 15.93ZM158.65 22L156.27 22L156.27 13.60L160.12 13.60Q161.26 13.60 162.10 13.98Q162.94 14.35 163.39 15.06Q163.85 15.76 163.85 16.71L163.85 16.71Q163.85 17.62 163.42 18.30Q163.00 18.98 162.20 19.36L162.20 19.36L164.01 22L161.47 22L159.95 19.77L158.65 19.77L158.65 22ZM158.65 15.47L158.65 17.93L159.97 17.93Q160.70 17.93 161.08 17.61Q161.45 17.29 161.45 16.71L161.45 16.71Q161.45 16.12 161.08 15.79Q160.70 15.47 159.97 15.47L159.97 15.47L158.65 15.47ZM171.02 22L168.64 22L168.64 13.60L171.02 13.60L171.02 22ZM177.61 22L175.18 22L178.89 13.60L181.24 13.60L184.95 22L182.48 22L181.82 20.37L178.27 20.37L177.61 22ZM180.05 15.93L178.96 18.61L181.12 18.61L180.05 15.93ZM189.98 20.21L188.47 20.21L188.47 18.67L190.18 18.67L190.38 16.94L188.86 16.94L188.86 15.39L190.57 15.39L190.80 13.60L192.43 13.60L192.20 15.39L193.68 15.39L193.91 13.60L195.54 13.60L195.31 15.39L196.82 15.39L196.82 16.94L195.12 16.94L194.92 18.67L196.42 18.67L196.42 20.21L194.72 20.21L194.50 22L192.86 22L193.09 20.21L191.61 20.21L191.38 22L189.76 22L189.98 20.21ZM192.01 16.94L191.81 18.67L193.28 18.67L193.49 16.94L192.01 16.94ZM202.82 16.78L200.79 16.78L200.79 13.60L207.75 13.60L207.75 15.09L204.78 22L202.19 22L205.02 15.48L202.82 15.48L202.82 16.78ZM216.34 20.39L211.90 20.39L211.90 18.84L215.67 13.60L218.13 13.60L214.72 18.51L216.42 18.51L216.42 17.08L218.66 17.08L218.66 18.51L219.91 18.51L219.91 20.39L218.66 20.39L218.66 22L216.34 22L216.34 20.39ZM223.42 21.34L223.42 21.34L224.28 19.55Q224.77 19.88 225.39 20.07Q226.01 20.25 226.61 20.25L226.61 20.25Q227.22 20.25 227.58 20.02Q227.94 19.79 227.94 19.37L227.94 19.37Q227.94 18.55 226.66 18.55L226.66 18.55L225.66 18.55L225.66 17.05L227.16 15.44L223.85 15.44L223.85 13.60L229.92 13.60L229.92 15.09L228.18 16.96Q229.22 17.18 229.78 17.82Q230.34 18.46 230.34 19.37L230.34 19.37Q230.34 20.11 229.94 20.75Q229.53 21.39 228.71 21.78Q227.89 22.17 226.68 22.17L226.68 22.17Q225.79 22.17 224.92 21.95Q224.05 21.74 223.42 21.34ZM234.37 16.30L234.37 16.30Q234.37 15.45 234.81 14.80Q235.25 14.14 236.00 13.79Q236.75 13.43 237.66 13.43L237.66 13.43Q239.47 13.43 240.52 14.50Q241.56 15.57 241.56 17.57L241.56 17.57Q241.56 19.01 241.00 20.05Q240.44 21.09 239.43 21.63Q238.42 22.17 237.09 22.17L237.09 22.17Q236.38 22.17 235.73 22.01Q235.08 21.84 234.63 21.55L234.63 21.55L235.49 19.85Q236.10 20.28 237.03 20.28L237.03 20.28Q237.94 20.28 238.49 19.79Q239.05 19.29 239.15 18.34L239.15 18.34Q238.43 18.95 237.26 18.95L237.26 18.95Q236.47 18.95 235.81 18.62Q235.15 18.29 234.76 17.68Q234.37 17.08 234.37 16.30ZM236.68 16.19L236.68 16.19Q236.68 16.67 237.00 16.96Q237.32 17.25 237.83 17.25L237.83 17.25Q238.35 17.25 238.67 16.96Q238.99 16.66 238.99 16.18L238.99 16.18Q238.99 15.71 238.68 15.42Q238.36 15.12 237.82 15.12L237.82 15.12Q237.32 15.12 237.00 15.41Q236.68 15.70 236.68 16.19Z" fill="#FFFFFF" x="105.37"/></svg>