<svg xmlns="http://www.w3.org/2000/svg" width="242.39" height="35" viewBox="0 0 242.39 35"><rect class="svg__rect" x="0" y="0" width="117.92" height="35" fill="#31C4F3"/><rect class="svg__rect" x="115.92" y="0" width="126.47" height="35" fill="#389AD5"/><path class="svg__text" d="M15.78 22L14.31 22L14.31 13.47L15.78 13.47L15.78 22ZM22.07 22L20.59 22L20.59 13.47L22.07 13.47L25.89 19.54L25.89 13.47L27.36 13.47L27.36 22L25.88 22L22.07 15.95L22.07 22ZM31.67 19.42L31.67 19.42L33.15 19.42Q33.15 20.15 33.63 20.55Q34.11 20.95 35.01 20.95L35.01 20.95Q35.78 20.95 36.17 20.63Q36.56 20.32 36.56 19.80L36.56 19.80Q36.56 19.24 36.16 18.94Q35.77 18.63 34.74 18.32Q33.71 18.01 33.10 17.63L33.10 17.63Q31.93 16.90 31.93 15.72L31.93 15.72Q31.93 14.69 32.77 14.02Q33.61 13.35 34.95 13.35L34.95 13.35Q35.84 13.35 36.54 13.68Q37.24 14.01 37.64 14.61Q38.04 15.22 38.04 15.96L38.04 15.96L36.56 15.96Q36.56 15.29 36.14 14.91Q35.72 14.54 34.94 14.54L34.94 14.54Q34.22 14.54 33.81 14.85Q33.41 15.16 33.41 15.71L33.41 15.71Q33.41 16.18 33.85 16.50Q34.28 16.81 35.28 17.10Q36.27 17.40 36.88 17.78Q37.48 18.16 37.76 18.65Q38.04 19.13 38.04 19.79L38.04 19.79Q38.04 20.86 37.22 21.49Q36.41 22.12 35.01 22.12L35.01 22.12Q34.08 22.12 33.30 21.77Q32.53 21.43 32.10 20.83Q31.67 20.22 31.67 19.42ZM44.01 14.66L41.38 14.66L41.38 13.47L48.14 13.47L48.14 14.66L45.48 14.66L45.48 22L44.01 22L44.01 14.66ZM52.68 22L51.14 22L54.36 13.47L55.69 13.47L58.92 22L57.37 22L56.67 20.01L53.37 20.01L52.68 22ZM55.02 15.28L53.79 18.82L56.26 18.82L55.02 15.28ZM62.63 18.13L62.63 18.13L62.63 17.46Q62.63 15.53 63.55 14.44Q64.48 13.35 66.14 13.35L66.14 13.35Q67.56 13.35 68.40 14.05Q69.24 14.76 69.41 16.08L69.41 16.08L67.95 16.08Q67.71 14.54 66.17 14.54L66.17 14.54Q65.17 14.54 64.65 15.26Q64.13 15.98 64.12 17.37L64.12 17.37L64.12 18.02Q64.12 19.40 64.70 20.17Q65.28 20.93 66.32 20.93L66.32 20.93Q67.46 20.93 67.94 20.42L67.94 20.42L67.94 18.75L66.18 18.75L66.18 17.62L69.41 17.62L69.41 20.89Q68.95 21.50 68.13 21.81Q67.31 22.12 66.27 22.12L66.27 22.12Q65.19 22.12 64.37 21.63Q63.54 21.14 63.09 20.24Q62.64 19.33 62.63 18.13ZM75.51 22L74.03 22L74.03 13.47L77.03 13.47Q78.51 13.47 79.31 14.13Q80.11 14.79 80.11 16.05L80.11 16.05Q80.11 16.90 79.70 17.48Q79.29 18.06 78.55 18.37L78.55 18.37L80.46 21.92L80.46 22L78.88 22L77.16 18.71L75.51 18.71L75.51 22ZM75.51 14.66L75.51 17.52L77.04 17.52Q77.79 17.52 78.21 17.15Q78.63 16.77 78.63 16.11L78.63 16.11Q78.63 15.43 78.24 15.05Q77.85 14.68 77.08 14.66L77.08 14.66L75.51 14.66ZM85.29 22L83.74 22L86.97 13.47L88.30 13.47L91.53 22L89.98 22L89.28 20.01L85.98 20.01L85.29 22ZM87.63 15.28L86.39 18.82L88.87 18.82L87.63 15.28ZM96.96 22L95.48 22L95.48 13.47L97.40 13.47L99.86 20.01L102.32 13.47L104.23 13.47L104.23 22L102.76 22L102.76 19.19L102.90 15.43L100.39 22L99.32 22L96.81 15.43L96.96 19.19L96.96 22Z" fill="#FFFFFF"/><path class="svg__text" d="M136.49 22L130.11 22L130.11 13.60L132.49 13.60L132.49 20.11L136.49 20.11L136.49 22ZM140.48 17.80L140.48 17.80Q140.48 16.55 141.09 15.55Q141.69 14.56 142.76 14.00Q143.82 13.43 145.15 13.43L145.15 13.43Q146.48 13.43 147.54 14.00Q148.61 14.56 149.21 15.55Q149.82 16.55 149.82 17.80L149.82 17.80Q149.82 19.05 149.21 20.04Q148.61 21.04 147.55 21.60Q146.48 22.17 145.15 22.17L145.15 22.17Q143.82 22.17 142.76 21.60Q141.69 21.04 141.09 20.04Q140.48 19.05 140.48 17.80ZM142.88 17.80L142.88 17.80Q142.88 18.51 143.18 19.05Q143.48 19.60 144.00 19.90Q144.52 20.20 145.15 20.20L145.15 20.20Q145.79 20.20 146.30 19.90Q146.82 19.60 147.12 19.05Q147.42 18.51 147.42 17.80L147.42 17.80Q147.42 17.09 147.12 16.54Q146.82 16 146.30 15.70Q145.79 15.40 145.15 15.40L145.15 15.40Q144.51 15.40 144.00 15.70Q143.48 16 143.18 16.54Q142.88 17.09 142.88 17.80ZM156.93 22L154.55 22L154.55 13.60L158.39 13.60Q159.53 13.60 160.37 13.98Q161.21 14.35 161.67 15.06Q162.12 15.76 162.12 16.71L162.12 16.71Q162.12 17.62 161.70 18.30Q161.27 18.98 160.48 19.36L160.48 19.36L162.29 22L159.74 22L158.22 19.77L156.93 19.77L156.93 22ZM156.93 15.47L156.93 17.93L158.24 17.93Q158.98 17.93 159.35 17.61Q159.72 17.29 159.72 16.71L159.72 16.71Q159.72 16.12 159.35 15.79Q158.98 15.47 158.24 15.47L158.24 15.47L156.93 15.47ZM168.33 22L165.90 22L169.61 13.60L171.96 13.60L175.67 22L173.20 22L172.54 20.37L168.99 20.37L168.33 22ZM170.77 15.93L169.68 18.61L171.84 18.61L170.77 15.93ZM182.20 22L179.82 22L179.82 13.60L183.67 13.60Q184.81 13.60 185.65 13.98Q186.49 14.35 186.94 15.06Q187.40 15.76 187.40 16.71L187.40 16.71Q187.40 17.62 186.97 18.30Q186.55 18.98 185.75 19.36L185.75 19.36L187.56 22L185.02 22L183.50 19.77L182.20 19.77L182.20 22ZM182.20 15.47L182.20 17.93L183.52 17.93Q184.25 17.93 184.63 17.61Q185.00 17.29 185.00 16.71L185.00 16.71Q185.00 16.12 184.63 15.79Q184.25 15.47 183.52 15.47L183.52 15.47L182.20 15.47ZM194.57 22L192.19 22L192.19 13.60L194.57 13.60L194.57 22ZM201.16 22L198.73 22L202.44 13.60L204.79 13.60L208.50 22L206.03 22L205.37 20.37L201.82 20.37L201.16 22ZM203.60 15.93L202.51 18.61L204.67 18.61L203.60 15.93ZM212.07 21.24L212.07 21.24L212.85 19.49Q213.41 19.86 214.15 20.09Q214.90 20.32 215.62 20.32L215.62 20.32Q216.98 20.32 216.99 19.64L216.99 19.64Q216.99 19.28 216.60 19.11Q216.21 18.93 215.34 18.74L215.34 18.74Q214.40 18.53 213.76 18.30Q213.12 18.06 212.67 17.55Q212.22 17.03 212.22 16.16L212.22 16.16Q212.22 15.39 212.63 14.77Q213.05 14.15 213.89 13.79Q214.72 13.43 215.93 13.43L215.93 13.43Q216.76 13.43 217.56 13.62Q218.37 13.80 218.98 14.17L218.98 14.17L218.25 15.93Q217.05 15.28 215.92 15.28L215.92 15.28Q215.21 15.28 214.89 15.49Q214.56 15.70 214.56 16.04L214.56 16.04Q214.56 16.37 214.95 16.54Q215.33 16.71 216.18 16.89L216.18 16.89Q217.14 17.10 217.77 17.33Q218.40 17.56 218.87 18.07Q219.33 18.58 219.33 19.46L219.33 19.46Q219.33 20.21 218.91 20.83Q218.49 21.44 217.65 21.80Q216.81 22.17 215.61 22.17L215.61 22.17Q214.59 22.17 213.63 21.92Q212.67 21.67 212.07 21.24ZM223.32 21.24L223.32 21.24L224.10 19.49Q224.66 19.86 225.40 20.09Q226.15 20.32 226.87 20.32L226.87 20.32Q228.23 20.32 228.24 19.64L228.24 19.64Q228.24 19.28 227.85 19.11Q227.46 18.93 226.59 18.74L226.59 18.74Q225.65 18.53 225.01 18.30Q224.37 18.06 223.92 17.55Q223.47 17.03 223.47 16.16L223.47 16.16Q223.47 15.39 223.88 14.77Q224.30 14.15 225.14 13.79Q225.97 13.43 227.18 13.43L227.18 13.43Q228.01 13.43 228.81 13.62Q229.62 13.80 230.23 14.17L230.23 14.17L229.50 15.93Q228.30 15.28 227.17 15.28L227.17 15.28Q226.46 15.28 226.14 15.49Q225.81 15.70 225.81 16.04L225.81 16.04Q225.81 16.37 226.20 16.54Q226.58 16.71 227.43 16.89L227.43 16.89Q228.39 17.10 229.02 17.33Q229.65 17.56 230.12 18.07Q230.58 18.58 230.58 19.46L230.58 19.46Q230.58 20.21 230.16 20.83Q229.74 21.44 228.90 21.80Q228.06 22.17 226.86 22.17L226.86 22.17Q225.84 22.17 224.88 21.92Q223.92 21.67 223.32 21.24Z" fill="#FFFFFF" x="128.92000000000002"/></svg>