<svg xmlns="http://www.w3.org/2000/svg" width="214.31" height="35" viewBox="0 0 214.31 35"><rect class="svg__rect" x="0" y="0" width="104.53" height="35" fill="#31C4F3"/><rect class="svg__rect" x="102.53" y="0" width="111.77999999999999" height="35" fill="#389AD5"/><path class="svg__text" d="M19.57 22L14.22 22L14.22 13.47L15.70 13.47L15.70 20.82L19.57 20.82L19.57 22ZM23.43 18.00L23.43 18.00L23.43 17.52Q23.43 16.28 23.87 15.32Q24.31 14.37 25.12 13.86Q25.92 13.35 26.97 13.35Q28.01 13.35 28.82 13.85Q29.62 14.35 30.06 15.29Q30.50 16.23 30.51 17.48L30.51 17.48L30.51 17.96Q30.51 19.21 30.07 20.16Q29.64 21.10 28.83 21.61Q28.03 22.12 26.98 22.12L26.98 22.12Q25.94 22.12 25.13 21.61Q24.32 21.10 23.88 20.17Q23.43 19.23 23.43 18.00ZM24.91 17.46L24.91 17.96Q24.91 19.36 25.46 20.13Q26.01 20.90 26.98 20.90L26.98 20.90Q27.96 20.90 28.49 20.15Q29.02 19.40 29.02 17.96L29.02 17.96L29.02 17.51Q29.02 16.09 28.49 15.34Q27.95 14.58 26.97 14.58L26.97 14.58Q26.01 14.58 25.46 15.33Q24.92 16.09 24.91 17.46L24.91 17.46ZM34.70 18.19L34.70 18.19L34.70 17.39Q34.70 16.19 35.13 15.27Q35.56 14.35 36.36 13.85Q37.16 13.35 38.21 13.35L38.21 13.35Q39.62 13.35 40.48 14.12Q41.34 14.89 41.48 16.29L41.48 16.29L40.00 16.29Q39.90 15.37 39.47 14.96Q39.04 14.55 38.21 14.55L38.21 14.55Q37.24 14.55 36.72 15.26Q36.20 15.96 36.19 17.33L36.19 17.33L36.19 18.09Q36.19 19.47 36.68 20.20Q37.18 20.92 38.14 20.92L38.14 20.92Q39.01 20.92 39.45 20.53Q39.89 20.14 40.00 19.22L40.00 19.22L41.48 19.22Q41.35 20.59 40.47 21.35Q39.59 22.12 38.14 22.12L38.14 22.12Q37.12 22.12 36.34 21.63Q35.56 21.15 35.14 20.26Q34.72 19.37 34.70 18.19ZM46.57 22L45.03 22L48.25 13.47L49.58 13.47L52.81 22L51.27 22L50.57 20.01L47.26 20.01L46.57 22ZM48.92 15.28L47.68 18.82L50.15 18.82L48.92 15.28ZM58.45 14.66L55.81 14.66L55.81 13.47L62.58 13.47L62.58 14.66L59.92 14.66L59.92 22L58.45 22L58.45 14.66ZM67.90 22L66.42 22L66.42 13.47L67.90 13.47L67.90 22ZM72.44 18.00L72.44 18.00L72.44 17.52Q72.44 16.28 72.88 15.32Q73.33 14.37 74.13 13.86Q74.94 13.35 75.98 13.35Q77.02 13.35 77.83 13.85Q78.64 14.35 79.07 15.29Q79.51 16.23 79.52 17.48L79.52 17.48L79.52 17.96Q79.52 19.21 79.09 20.16Q78.65 21.10 77.85 21.61Q77.04 22.12 75.99 22.12L75.99 22.12Q74.96 22.12 74.14 21.61Q73.33 21.10 72.89 20.17Q72.45 19.23 72.44 18.00ZM73.92 17.46L73.92 17.96Q73.92 19.36 74.47 20.13Q75.02 20.90 75.99 20.90L75.99 20.90Q76.98 20.90 77.51 20.15Q78.04 19.40 78.04 17.96L78.04 17.96L78.04 17.51Q78.04 16.09 77.50 15.34Q76.97 14.58 75.98 14.58L75.98 14.58Q75.02 14.58 74.48 15.33Q73.94 16.09 73.92 17.46L73.92 17.46ZM85.47 22L83.98 22L83.98 13.47L85.47 13.47L89.28 19.54L89.28 13.47L90.75 13.47L90.75 22L89.27 22L85.47 15.95L85.47 22Z" fill="#FFFFFF"/><path class="svg__text" d="M116.29 17.80L116.29 17.80Q116.29 16.54 116.89 15.54Q117.49 14.55 118.55 13.99Q119.62 13.43 120.97 13.43L120.97 13.43Q122.14 13.43 123.08 13.83Q124.02 14.22 124.64 14.97L124.64 14.97L123.13 16.33Q122.28 15.40 121.11 15.40L121.11 15.40Q121.09 15.40 121.09 15.40L121.09 15.40Q120.01 15.40 119.35 16.06Q118.69 16.71 118.69 17.80L118.69 17.80Q118.69 18.50 118.99 19.04Q119.29 19.59 119.83 19.89Q120.37 20.20 121.07 20.20L121.07 20.20Q121.75 20.20 122.35 19.93L122.35 19.93L122.35 17.62L124.45 17.62L124.45 21.10Q123.73 21.61 122.79 21.89Q121.86 22.17 120.92 22.17L120.92 22.17Q119.60 22.17 118.54 21.61Q117.49 21.05 116.89 20.05Q116.29 19.06 116.29 17.80ZM136.18 22L129.44 22L129.44 13.60L136.03 13.60L136.03 15.44L131.79 15.44L131.79 16.85L135.53 16.85L135.53 18.63L131.79 18.63L131.79 20.17L136.18 20.17L136.18 22ZM143.37 22L140.99 22L140.99 13.60L144.83 13.60Q145.97 13.60 146.81 13.98Q147.65 14.35 148.11 15.06Q148.56 15.76 148.56 16.71L148.56 16.71Q148.56 17.62 148.14 18.30Q147.71 18.98 146.92 19.36L146.92 19.36L148.73 22L146.18 22L144.66 19.77L143.37 19.77L143.37 22ZM143.37 15.47L143.37 17.93L144.68 17.93Q145.42 17.93 145.79 17.61Q146.16 17.29 146.16 16.71L146.16 16.71Q146.16 16.12 145.79 15.79Q145.42 15.47 144.68 15.47L144.68 15.47L143.37 15.47ZM155.55 22L153.35 22L153.35 13.60L155.31 13.60L158.26 18.45L161.14 13.60L163.09 13.60L163.12 22L160.94 22L160.92 17.55L158.75 21.17L157.70 21.17L155.55 17.67L155.55 22ZM169.70 22L167.27 22L170.98 13.60L173.33 13.60L177.04 22L174.57 22L173.91 20.37L170.36 20.37L169.70 22ZM172.14 15.93L171.05 18.61L173.21 18.61L172.14 15.93ZM183.53 22L181.19 22L181.19 13.60L183.15 13.60L186.86 18.07L186.86 13.60L189.19 13.60L189.19 22L187.24 22L183.53 17.52L183.53 22ZM196.48 18.95L193.27 13.60L195.78 13.60L197.77 16.94L199.76 13.60L202.07 13.60L198.85 18.99L198.85 22L196.48 22L196.48 18.95Z" fill="#FFFFFF" x="115.53"/></svg>